<?xml version="1.0" standalone="no"?>
<!DOCTYPE svg PUBLIC "-//W3C//DTD SVG 20010904//EN"
 "http://www.w3.org/TR/2001/REC-SVG-20010904/DTD/svg10.dtd">
<svg version="1.0" xmlns="http://www.w3.org/2000/svg"
 width="200.000000pt" height="200.000000pt" viewBox="0 0 200.000000 200.000000"
 preserveAspectRatio="xMidYMid meet">
<metadata>
Created by potrace 1.15, written by Peter Selinger 2001-2017
</metadata>
<g transform="translate(0.000000,200.000000) scale(0.100000,-0.100000)"
fill="#000000" stroke="none">
<path d="M812 1875 c-253 -55 -471 -219 -595 -445 -63 -115 -92 -210 -106
-344 -44 -437 237 -841 668 -958 111 -31 334 -30 446 0 321 88 559 326 647
647 31 116 31 326 -1 444 -46 174 -125 306 -255 428 -125 118 -272 196 -428
227 -95 20 -288 20 -376 1z m391 -330 c63 -13 156 -55 176 -79 7 -8 -26 -11
-111 -10 -118 2 -120 2 -151 32 -43 40 -69 52 -112 52 -69 0 -137 -57 -169
-142 -14 -37 -27 -49 -72 -74 -30 -16 -54 -35 -54 -42 0 -11 101 -425 116
-474 4 -14 -1 -18 -23 -18 l-28 0 -81 328 c-44 180 -78 333 -76 340 5 14 42
17 42 2 0 -5 19 -1 43 9 186 79 360 106 500 76z m-97 -78 c144 -159 37 -486
-139 -428 -142 47 -179 317 -61 435 39 38 61 47 114 42 38 -4 51 -11 86 -49z
m-208 -407 c25 -23 56 -42 77 -46 47 -8 117 18 149 57 l25 29 57 -21 c82 -31
128 -81 154 -169 37 -124 57 -115 -246 -118 l-262 -2 -32 132 c-18 73 -33 137
-34 142 0 4 15 14 34 21 19 8 35 14 36 14 0 1 19 -17 42 -39z m-172 -152 c13
-51 24 -99 24 -105 0 -21 -109 -17 -117 3 -11 29 49 215 64 200 3 -2 15 -46
29 -98z m-152 -229 c20 -16 26 -29 26 -60 0 -60 -27 -81 -98 -77 l-57 3 -3 64
c-2 35 -1 70 2 77 9 23 98 18 130 -7z m670 -29 c15 -27 31 -52 36 -55 4 -3 22
20 39 50 17 30 36 55 41 55 14 0 22 -39 18 -100 -2 -43 -7 -56 -20 -58 -15 -3
-18 4 -18 35 l-1 38 -22 -37 c-12 -21 -27 -38 -33 -38 -7 0 -24 19 -38 43
l-25 42 -1 -42 c0 -31 -4 -43 -15 -43 -12 0 -15 15 -15 73 0 105 13 113 54 37z
m279 39 c31 -16 37 -28 37 -71 0 -59 -27 -80 -98 -76 l-57 3 -3 64 c-2 35 -1
70 2 77 7 17 88 19 119 3z"/>
<path d="M963 1405 c-33 -23 -57 -96 -49 -152 7 -50 47 -146 73 -175 22 -24
38 -9 74 66 51 108 48 194 -7 250 -30 29 -59 33 -91 11z"/>
</g>
</svg>
