<?xml version="1.0" standalone="no"?>
<!DOCTYPE svg PUBLIC "-//W3C//DTD SVG 20010904//EN"
 "http://www.w3.org/TR/2001/REC-SVG-20010904/DTD/svg10.dtd">
<svg version="1.0" xmlns="http://www.w3.org/2000/svg"
 width="360.000000pt" height="368.000000pt" viewBox="0 0 360.000000 368.000000"
 preserveAspectRatio="xMidYMid meet">
<metadata>
Created by potrace 1.15, written by Peter Selinger 2001-2017
</metadata>
<g transform="translate(0.000000,368.000000) scale(0.100000,-0.100000)"
fill="#000000" stroke="none">
<path d="M1971 3558 c-1 -21 -21 -24 -39 -6 -10 10 -19 8 -44 -6 -17 -11 -28
-14 -24 -7 4 6 2 11 -4 11 -8 0 -10 -10 -6 -27 5 -26 5 -27 -6 -5 -7 14 -20
22 -35 22 -20 0 -23 -4 -18 -22 5 -21 5 -21 -5 -5 -11 18 -12 18 -25 0 -13
-17 -14 -17 -20 0 -12 29 -21 19 -18 -20 l2 -38 -12 35 c-9 26 -18 35 -35 36
-20 1 -21 -1 -7 -16 29 -32 11 -60 -25 -38 -13 9 -18 19 -14 33 4 15 3 16 -4
6 -12 -17 -62 -7 -62 13 0 7 -6 18 -12 24 -10 8 -12 -1 -10 -44 6 -87 -3 -97
-44 -49 -20 22 -32 31 -28 21 4 -11 2 -21 -7 -27 -20 -12 -30 -11 -27 4 2 6
-2 13 -7 14 -11 1 -11 -1 1 -31 6 -16 4 -18 -19 -14 -27 5 -36 -5 -17 -17 6
-3 10 -11 10 -16 0 -9 -14 -7 -60 9 -12 4 -11 1 3 -15 25 -28 21 -38 -8 -19
-28 18 -45 21 -45 6 0 -5 6 -10 14 -10 8 0 18 -5 22 -12 5 -8 2 -9 -10 -5 -14
5 -17 3 -12 -8 6 -17 -19 -21 -29 -5 -9 15 -52 12 -58 -4 -3 -9 4 -21 19 -30
13 -9 24 -23 24 -31 0 -12 -6 -11 -31 4 -25 16 -36 17 -55 9 -19 -9 -21 -14
-13 -25 9 -11 2 -13 -40 -13 -28 0 -51 -4 -51 -10 0 -5 11 -10 24 -10 14 0 28
-4 31 -10 3 -6 -5 -10 -19 -10 -38 0 -22 -27 20 -34 19 -4 34 -12 34 -18 0 -6
-11 -8 -25 -6 -14 3 -28 0 -32 -6 -3 -6 -3 -8 2 -4 4 4 14 3 21 -3 10 -8 9
-17 -7 -46 -11 -19 -19 -45 -17 -56 2 -15 -3 -23 -17 -25 -11 -2 -24 -9 -30
-14 -7 -8 -6 -9 2 -4 6 3 14 2 18 -4 3 -5 -2 -10 -11 -10 -16 0 -16 -1 -1 -18
15 -16 15 -19 -3 -30 -11 -7 -20 -21 -20 -31 0 -11 -5 -23 -11 -26 -6 -4 -8
-13 -5 -21 3 -8 1 -35 -5 -62 -18 -86 -19 -102 -6 -102 8 0 9 -3 1 -8 -18 -12
-26 -45 -13 -53 9 -5 8 -14 -5 -34 -10 -15 -14 -34 -11 -45 4 -11 3 -25 -1
-31 -4 -7 -6 -44 -4 -83 1 -39 3 -102 4 -141 0 -38 4 -75 8 -81 4 -6 8 -30 10
-55 1 -24 8 -57 16 -72 15 -30 16 -41 6 -126 -4 -39 -9 -50 -16 -40 -7 10 -8
6 -5 -14 2 -15 0 -30 -4 -33 -12 -7 -11 -101 0 -109 13 -7 19 19 20 80 1 28
12 97 27 155 14 58 32 143 40 190 22 130 22 132 36 172 7 20 21 39 31 42 10 2
23 18 30 35 6 17 17 31 23 31 13 0 57 64 60 89 7 42 13 56 24 53 8 -2 11 4 7
18 -3 13 0 23 9 27 8 3 14 18 14 33 0 16 4 31 9 34 5 3 9 16 9 28 1 13 3 30 5
38 3 8 8 30 12 48 9 37 72 105 113 120 15 6 55 21 90 33 34 12 62 25 62 29 0
10 44 22 93 26 21 1 44 7 51 13 7 6 21 9 30 5 9 -3 16 -2 16 3 0 8 89 -3 146
-18 5 -2 32 1 59 5 35 5 65 2 99 -8 27 -8 53 -13 58 -10 13 8 48 -6 48 -20 0
-8 21 -19 48 -26 26 -7 50 -16 54 -19 4 -4 -4 -24 -18 -45 -14 -20 -24 -39
-22 -41 5 -5 35 19 36 30 1 6 8 10 15 10 6 0 11 8 9 17 -4 26 78 -23 103 -61
11 -16 27 -32 36 -34 9 -3 22 -14 28 -26 10 -18 9 -21 -9 -21 -14 0 -19 -4
-13 -12 4 -7 8 -20 8 -28 0 -8 13 -21 28 -28 22 -11 28 -19 23 -35 -3 -12 0
-27 6 -34 6 -8 11 -29 10 -48 -1 -19 3 -35 8 -35 6 0 9 -3 9 -7 -1 -5 -1 -25
0 -45 1 -27 5 -38 17 -38 8 0 13 -4 10 -9 -3 -5 1 -14 10 -21 8 -7 24 -32 34
-54 14 -29 20 -35 21 -21 2 27 15 -44 39 -205 11 -74 27 -160 35 -190 l14 -55
-6 55 c-3 30 -7 62 -8 70 -1 8 2 23 7 33 6 12 5 17 -6 17 -11 0 -13 12 -9 58
3 31 9 75 13 96 5 23 5 47 -1 57 -6 11 -5 19 2 21 6 2 13 35 15 73 2 39 7 88
10 109 5 28 4 37 -4 32 -7 -4 -12 -3 -12 3 0 5 4 12 10 16 12 7 8 65 -5 65 -5
0 -2 5 7 11 18 10 14 39 -6 39 -6 0 -17 9 -24 20 -10 17 -10 20 3 20 19 0 3
46 -26 71 -15 12 -18 24 -13 43 3 14 10 26 15 26 17 0 9 22 -16 42 -19 15 -24
25 -19 44 4 15 0 34 -10 49 -10 15 -12 25 -6 25 6 0 8 5 5 10 -3 6 -15 10 -26
10 -11 0 -17 5 -14 10 4 6 11 8 16 5 5 -3 6 1 3 9 -3 9 -9 14 -13 12 -4 -3
-13 -1 -21 4 -13 8 -11 16 9 52 l24 43 -30 -28 c-16 -15 -33 -24 -38 -20 -4 5
-6 1 -2 -9 3 -9 -1 -24 -8 -35 -13 -17 -14 -17 -15 0 0 9 6 17 13 17 8 0 8 3
-2 9 -12 8 -10 16 8 53 12 23 15 34 7 24 -14 -18 -16 -18 -22 -2 -4 10 -2 22
5 29 6 6 11 18 10 27 0 10 -2 11 -6 3 -2 -7 -9 -13 -15 -13 -7 0 -8 17 -4 48
3 26 2 41 -2 34 -7 -10 -11 -10 -22 3 -7 8 -19 15 -26 15 -8 0 -14 5 -14 11 0
5 -5 7 -10 4 -14 -9 -40 20 -40 44 0 29 -23 17 -37 -19 -6 -17 -15 -30 -20
-30 -13 0 -9 85 5 102 11 13 10 16 -5 14 -9 0 -22 9 -28 21 l-12 23 -11 -25
c-15 -33 -34 -33 -26 0 6 23 4 25 -20 21 -14 -2 -30 -7 -36 -11 -5 -3 -10 1
-10 9 0 9 -6 13 -14 10 -8 -3 -17 -1 -21 5 -3 6 -10 11 -14 11 -12 0 -46 -32
-59 -55 -11 -19 -11 -19 -12 5 l-1 25 -11 -22 c-17 -35 -27 -27 -24 16 3 37
-7 52 -30 50 -4 0 -10 5 -15 12 -6 11 -9 10 -15 -4 -9 -24 -43 -21 -54 6 -7
17 -9 18 -9 5z"/>
<path d="M1508 2445 c-26 -7 -49 -11 -51 -9 -6 7 -94 -33 -102 -45 -3 -6 -10
-9 -14 -6 -5 2 -19 -8 -32 -23 -13 -15 -20 -24 -15 -20 5 4 18 3 29 -3 13 -7
17 -7 13 -1 -12 20 20 26 133 24 91 -2 118 -6 133 -19 17 -16 17 -17 2 -26 -9
-5 -33 -11 -53 -14 -75 -9 -146 -26 -171 -42 -26 -17 -49 -41 -50 -53 0 -12
43 -35 78 -42 27 -5 32 -3 32 14 0 11 9 24 19 30 27 14 31 13 31 -10 0 -27 39
-60 71 -60 31 0 69 44 69 79 0 25 0 25 45 4 43 -20 45 -39 5 -48 -16 -4 -30
-10 -30 -15 0 -10 46 2 78 19 11 6 30 11 41 11 22 0 29 24 10 36 -8 5 -8 8 0
13 6 4 12 26 14 50 3 39 2 43 -25 48 -38 7 -41 15 -22 52 9 18 13 35 10 38 -3
4 -6 1 -6 -6 0 -17 -39 -4 -69 23 -20 17 -23 18 -18 4 7 -20 3 -22 -21 -9 -33
16 -87 19 -134 6z"/>
<path d="M2133 2438 c1 -38 -4 -50 -18 -44 -8 3 -23 9 -32 13 -12 5 -15 2 -10
-10 4 -10 1 -17 -6 -17 -8 0 -7 -3 2 -9 12 -8 12 -18 1 -69 -14 -66 -9 -92 28
-140 27 -36 41 -37 22 -2 -12 22 -11 22 26 17 22 -4 33 -4 27 -1 -21 9 -15 31
10 37 12 2 30 8 40 12 14 6 17 2 17 -19 0 -31 40 -76 67 -76 28 0 60 26 67 55
4 14 12 25 20 25 21 0 39 -28 33 -51 -4 -16 -2 -19 11 -13 9 4 29 7 45 8 15 0
27 1 27 3 0 1 -15 16 -32 33 -51 47 -130 73 -205 66 -35 -3 -63 -1 -63 3 0 15
24 19 101 16 79 -2 138 -22 177 -58 22 -20 24 -20 21 -3 -2 10 -15 27 -29 37
-31 23 -131 49 -187 49 -43 0 -59 15 -25 23 9 3 38 10 65 17 26 7 62 10 81 7
19 -3 52 -3 74 0 l40 5 -34 30 c-23 20 -59 36 -111 50 -73 18 -95 18 -175 3
-19 -4 -28 -1 -28 7 0 9 -3 9 -9 -1 -8 -12 -12 -12 -24 -3 -12 10 -15 10 -14
0z"/>
<path d="M1715 1568 c-31 -16 -45 -19 -66 -11 -35 14 -63 -2 -100 -57 -50 -74
-32 -94 34 -38 60 52 104 58 342 52 165 -5 216 -10 238 -22 15 -9 27 -23 27
-30 0 -10 7 -12 23 -8 12 3 30 6 41 6 14 0 17 5 12 25 -10 38 -48 75 -68 64
-10 -6 -19 -6 -23 0 -15 26 -65 38 -136 34 -41 -2 -82 -4 -91 -4 -10 0 -18 -5
-18 -11 0 -6 -6 -6 -15 2 -9 7 -27 10 -45 6 -17 -3 -30 -1 -30 4 0 18 -84 10
-125 -12z"/>
<path d="M1705 1432 c-3 -3 11 -22 30 -44 19 -21 35 -42 35 -47 0 -11 49 -19
160 -26 41 -3 96 -7 122 -10 53 -4 56 -3 62 50 3 20 7 40 10 43 3 3 1 11 -5
18 -7 8 -20 10 -42 4 -52 -14 -123 -17 -184 -8 -126 18 -183 24 -188 20z"/>
<path d="M1417 1123 c-9 -3 -15 -9 -12 -14 4 -5 2 -9 -4 -9 -5 0 -17 -7 -25
-16 -19 -19 -5 -54 21 -54 13 0 14 -3 6 -11 -17 -17 -5 -43 13 -28 8 6 14 8
14 4 0 -4 7 -2 15 5 15 12 39 5 30 -10 -2 -4 14 -8 36 -8 22 -1 46 -6 53 -11
7 -6 16 -8 19 -4 4 3 7 1 7 -5 0 -7 10 -12 23 -12 13 0 28 -5 35 -12 7 -7 12
-8 12 -4 0 5 11 1 24 -7 13 -9 33 -14 45 -12 13 2 22 -3 26 -16 4 -11 11 -17
16 -14 5 4 9 -5 9 -19 0 -19 -5 -26 -20 -26 -11 0 -20 4 -20 10 0 5 7 7 15 4
8 -4 15 -2 15 3 0 5 -36 9 -80 9 -58 0 -80 -3 -80 -12 0 -10 -6 -10 -27 2 -16
7 -33 14 -39 14 -5 0 -19 8 -30 18 -11 11 -35 17 -59 17 -28 0 -40 4 -41 15
-1 8 -2 19 -3 24 0 4 -12 1 -26 -8 -14 -9 -25 -12 -25 -6 0 5 -7 10 -15 10 -8
0 -15 -7 -15 -15 0 -8 5 -15 10 -15 6 0 10 -12 10 -26 0 -14 -4 -23 -9 -19
-18 10 -23 -16 -7 -34 9 -10 13 -21 9 -26 -5 -4 -3 -6 2 -3 10 5 54 -34 57
-49 3 -22 33 -53 45 -49 8 3 12 2 9 -3 -3 -5 1 -12 10 -15 13 -5 14 -9 5 -20
-13 -15 -4 -43 26 -86 14 -19 15 -22 3 -16 -8 4 0 -6 18 -22 23 -21 30 -31 20
-35 -7 -3 -1 -6 14 -6 29 -1 46 -16 26 -24 -13 -5 152 -87 175 -87 7 0 18 -5
25 -12 7 -7 46 -12 99 -13 71 -2 89 1 104 16 15 15 24 17 44 9 21 -8 36 -4 82
20 31 17 68 30 84 30 20 0 28 6 31 20 2 12 6 19 10 18 8 -3 37 32 38 45 0 4
-7 7 -15 7 -19 0 -19 9 0 34 8 10 21 16 29 13 9 -4 16 3 20 18 4 16 11 22 21
19 9 -4 15 0 15 10 0 9 6 16 14 16 8 0 17 3 20 8 2 4 -14 6 -36 4 -29 -3 -42
-10 -45 -23 -3 -11 -9 -19 -14 -19 -13 0 -11 14 3 28 7 7 8 12 3 12 -5 0 1 7
13 16 12 8 22 20 22 26 0 7 10 22 22 35 12 13 21 37 22 55 1 20 6 32 13 31 8
-2 10 4 6 14 -4 10 -8 12 -11 5 -2 -8 -11 -7 -28 5 -17 11 -37 14 -65 10 -36
-5 -41 -3 -49 19 -13 33 -22 30 -14 -3 l7 -28 -20 25 c-19 23 -21 23 -37 7
-12 -12 -26 -15 -44 -11 -34 9 -36 10 -26 26 5 7 9 16 9 19 0 3 8 13 17 22 15
15 18 15 32 2 12 -12 20 -14 36 -5 11 6 20 15 20 20 0 5 7 7 15 4 10 -4 15 0
15 15 0 12 5 21 11 21 6 0 9 -9 6 -20 -4 -17 -2 -18 14 -9 11 5 24 7 29 4 13
-8 13 1 0 25 -8 16 -7 18 4 14 11 -4 13 0 9 18 -6 20 -5 22 10 9 14 -11 17
-11 21 0 13 43 12 58 -6 73 -19 17 -43 13 -33 -5 4 -5 1 -9 -4 -9 -6 0 -11 5
-11 10 0 6 -7 10 -15 10 -8 0 -15 -4 -15 -9 0 -4 -26 -16 -57 -25 -32 -10 -71
-22 -87 -27 -16 -5 -34 -5 -40 0 -22 17 -55 18 -107 5 -39 -10 -55 -11 -60 -3
-5 8 -27 9 -70 5 -128 -15 -188 -6 -286 42 -76 37 -100 43 -136 35z"/>
<path d="M900 1018 c-85 -39 -164 -74 -175 -78 -22 -9 -131 -49 -245 -90 -185
-68 -243 -94 -232 -105 4 -5 2 -5 -5 -1 -14 8 -173 -62 -173 -76 0 -5 4 -6 10
-3 6 3 10 -4 10 -17 0 -18 -2 -20 -10 -8 -8 12 -10 12 -10 -5 -1 -18 -1 -19
-11 -2 -5 9 -7 22 -3 28 3 6 -6 4 -22 -4 -19 -10 -29 -23 -30 -41 -1 -29 12
-35 19 -9 4 17 5 17 6 0 0 -10 -5 -20 -13 -23 -13 -5 -15 -53 -16 -295 l-1
-289 1801 0 1800 0 0 345 c0 228 -3 345 -10 345 -6 0 -49 18 -96 40 -47 22
-90 38 -96 34 -6 -4 -8 -3 -5 2 7 13 -203 109 -358 165 -66 23 -172 62 -235
87 -63 24 -123 46 -132 49 -16 5 -18 -2 -18 -58 0 -75 -21 -183 -46 -236 -38
-82 -121 -181 -204 -244 -25 -19 -46 -37 -48 -41 -2 -4 -20 -12 -40 -19 -20
-7 -48 -20 -61 -30 -13 -10 -28 -16 -35 -12 -6 3 -8 3 -4 -2 4 -4 1 -20 -7
-36 -18 -34 -19 -42 -3 -33 7 3 0 -5 -17 -19 -47 -41 -333 -180 -353 -172 -18
6 -150 79 -322 178 -136 78 -210 139 -302 248 -84 99 -118 204 -133 412 -4 48
-10 87 -13 86 -4 0 -77 -33 -162 -71z"/>
</g>
</svg>
